<?xml version="1.0" standalone="no"?>
<!DOCTYPE svg PUBLIC "-//W3C//DTD SVG 20010904//EN"
 "http://www.w3.org/TR/2001/REC-SVG-20010904/DTD/svg10.dtd">
<svg version="1.0" xmlns="http://www.w3.org/2000/svg"
 width="784.000000pt" height="784.000000pt" viewBox="0 0 784.000000 784.000000"
 preserveAspectRatio="xMidYMid meet">
<metadata>
Created by potrace 1.11, written by Peter Selinger 2001-2013
</metadata>
<g transform="translate(0.000000,784.000000) scale(0.100000,-0.100000)"
fill="#000000" stroke="none">
<path d="M2420 7818 c-41 -10 -82 -21 -90 -23 -8 -2 -48 -13 -87 -24 -40 -10
-73 -17 -73 -15 0 2 -11 -1 -24 -5 -29 -12 -143 -24 -216 -24 -52 0 -458 13
-547 17 l-43 2 0 -98 0 -98 43 5 c23 3 99 8 168 11 l126 6 36 -31 c35 -32 133
-181 184 -283 l27 -53 1 -440 c1 -314 5 -448 13 -468 17 -41 15 -79 -10 -144
-17 -45 -21 -79 -21 -153 0 -88 3 -100 37 -170 39 -81 43 -101 23 -122 -16
-17 -42 -73 -55 -119 -10 -37 -10 -37 36 -159 43 -116 45 -174 14 -295 -26
-97 -27 -114 -18 -230 4 -49 9 -126 11 -170 7 -127 13 -233 19 -330 3 -49 8
-135 11 -190 3 -55 8 -129 11 -165 3 -36 5 -74 4 -85 -1 -23 -1 -26 4 -85 2
-25 7 -101 10 -170 4 -69 9 -152 12 -185 15 -152 9 -204 -31 -294 -32 -69
-114 -149 -193 -186 -31 -15 -64 -28 -72 -30 -8 -2 -28 -8 -45 -15 -16 -6 -31
-11 -33 -10 -1 1 -22 -2 -46 -5 l-43 -7 -2 -61 c-1 -34 -3 -72 -5 -83 -4 -17
7 -30 47 -57 114 -77 126 -80 271 -72 72 4 159 8 193 9 35 0 63 3 63 6 0 3 28
6 63 6 56 2 125 5 342 19 185 11 376 18 535 19 l175 2 3 102 c3 100 2 102 -20
103 -153 4 -317 66 -386 144 -65 74 -66 86 -77 563 -9 390 -22 1092 -25 1352
l-2 125 105 100 c57 55 113 107 123 115 138 110 293 194 399 215 17 3 38 8 47
11 69 21 304 21 398 1 114 -25 157 -46 218 -105 137 -134 191 -298 167 -512
-4 -36 -9 -68 -11 -71 -2 -4 -6 -24 -10 -45 -3 -22 -10 -57 -16 -79 -5 -22
-12 -51 -15 -65 -17 -100 -141 -537 -198 -700 -15 -41 -28 -82 -30 -90 -3 -8
-18 -60 -34 -115 -17 -55 -33 -113 -36 -130 -8 -39 -13 -60 -15 -60 -2 0 -6
-21 -14 -69 -3 -21 -8 -42 -11 -46 -2 -4 -7 -27 -10 -51 -3 -24 -8 -52 -11
-61 -3 -9 -7 -34 -9 -55 -25 -225 -24 -286 7 -433 7 -30 12 -57 13 -60 3 -15
49 -147 54 -155 3 -5 6 -12 7 -15 8 -43 96 -192 163 -275 130 -163 252 -252
446 -324 115 -43 365 -48 413 -9 6 6 12 7 12 4 0 -19 150 75 202 126 106 106
148 223 143 400 -4 162 -31 248 -102 314 -39 37 -109 74 -139 74 -12 0 -24 3
-27 7 -9 9 -95 8 -137 -2 -46 -10 -113 -59 -144 -104 -109 -161 2 -356 219
-384 29 -4 95 6 126 18 15 6 15 1 -1 -48 -26 -77 -45 -111 -89 -156 -112 -114
-383 -94 -575 43 -65 46 -199 191 -243 261 -50 80 -105 203 -119 266 -21 95
-26 263 -10 345 3 17 8 48 11 70 2 21 10 64 17 94 14 67 15 69 18 73 1 1 3 9
5 18 2 13 21 76 40 139 1 3 7 19 14 35 6 17 27 68 46 115 70 172 230 679 249
785 1 6 5 16 9 23 5 6 6 12 3 12 -2 0 4 30 14 68 10 37 20 83 23 103 2 20 7
41 10 46 3 5 8 29 11 54 9 67 19 173 18 184 0 6 -3 48 -6 95 -3 47 -10 100
-16 119 -5 19 -8 37 -5 39 3 3 0 11 -6 19 -6 7 -9 13 -6 13 9 0 -37 129 -68
190 -66 130 -157 233 -265 299 -30 19 -66 41 -80 50 -14 8 -27 16 -30 17 -3 0
-18 6 -35 13 -275 117 -575 104 -850 -34 -91 -46 -146 -76 -155 -85 -3 -3 -25
-18 -50 -35 -25 -16 -59 -41 -77 -55 -71 -57 -88 -70 -95 -70 -5 0 -8 19 -9
43 0 23 -2 132 -4 242 -3 110 -7 304 -9 430 -2 127 -8 385 -11 575 -4 190 -9
408 -10 485 -8 406 -5 370 -31 400 -22 25 -31 28 -96 30 -47 2 -100 -4 -148
-17z"/>
<path d="M5475 7697 c-127 -51 -198 -146 -202 -269 -4 -164 108 -289 273 -303
117 -9 226 52 282 160 21 41 26 64 26 130 1 90 -12 126 -70 194 -69 80 -220
123 -309 88z"/>
<path d="M6135 6633 c-11 -3 -22 -9 -25 -13 -8 -12 -321 -170 -460 -231 -151
-68 -245 -101 -345 -125 -5 -1 -120 -30 -255 -64 -135 -34 -254 -63 -265 -65
-11 -1 -27 -5 -35 -8 -8 -3 -40 -11 -70 -17 -30 -6 -62 -14 -70 -17 -8 -3 -23
-8 -33 -10 -38 -7 -78 -35 -89 -61 -10 -26 -11 -58 -4 -112 2 -14 4 -33 5 -43
0 -9 16 -26 34 -38 41 -26 120 -20 237 16 332 103 299 93 330 100 22 5 27 0
44 -37 17 -37 70 -150 176 -373 25 -53 28 -70 26 -140 -1 -44 3 -101 10 -127
7 -27 10 -48 8 -48 -3 0 0 -8 5 -17 5 -10 11 -31 15 -48 3 -16 13 -57 22 -90
9 -33 18 -71 19 -85 2 -14 4 -25 5 -25 2 0 4 -9 5 -20 2 -11 6 -36 9 -55 7
-40 13 -85 21 -150 3 -25 8 -56 10 -70 3 -14 7 -63 10 -110 3 -47 7 -96 10
-110 3 -14 8 -45 11 -70 8 -59 40 -160 58 -185 13 -18 10 -24 -29 -67 -51 -57
-73 -100 -80 -160 -4 -37 1 -55 34 -120 42 -84 43 -97 16 -220 -25 -110 -21
-139 24 -188 22 -24 47 -61 57 -82 16 -36 16 -42 0 -99 -18 -65 -11 -116 21
-165 8 -13 16 -41 18 -64 2 -38 -1 -59 -21 -145 -14 -60 -8 -149 12 -185 10
-19 22 -37 26 -40 11 -9 29 -62 34 -101 3 -23 -5 -60 -22 -105 -14 -38 -28
-91 -31 -119 -5 -48 -3 -52 46 -108 56 -64 101 -128 119 -170 20 -46 14 -89
-22 -164 -84 -175 -91 -263 -31 -408 55 -135 73 -205 79 -305 6 -120 -161
-472 -328 -690 -89 -117 -194 -210 -285 -252 -25 -12 -48 -22 -51 -23 -3 0
-21 -6 -41 -13 -60 -21 -80 -24 -179 -26 -339 -9 -632 215 -758 579 -31 89
-43 259 -26 370 3 22 8 54 10 70 16 100 60 201 117 262 22 24 45 43 52 43 7 0
18 6 24 14 7 8 27 17 46 20 42 8 161 9 193 1 12 -3 31 -7 43 -10 34 -7 80 -38
102 -67 14 -19 21 -45 22 -85 2 -74 -2 -85 -25 -73 -31 17 -113 15 -146 -3
-86 -45 -104 -232 -34 -367 75 -147 260 -178 387 -66 82 72 121 186 121 350 0
118 -9 169 -43 242 -26 55 -95 148 -132 177 -13 10 -29 24 -36 31 -22 22 -101
65 -172 92 -96 37 -225 39 -337 5 -43 -13 -83 -30 -89 -37 -6 -8 -17 -14 -23
-14 -25 0 -120 -102 -163 -175 -22 -37 -58 -118 -63 -140 -1 -5 -5 -14 -10
-20 -4 -5 -15 -39 -25 -75 -42 -164 -48 -335 -15 -448 5 -18 7 -32 4 -32 -2 0
5 -22 16 -50 11 -27 18 -50 16 -50 -13 0 91 -222 106 -228 4 -2 8 -9 8 -16 0
-24 119 -161 204 -234 119 -102 308 -194 446 -217 115 -19 249 -15 345 9 11 3
36 10 55 15 90 23 285 143 386 238 147 137 256 304 348 532 63 155 251 738
316 977 70 257 85 320 105 462 15 107 19 232 30 787 2 138 7 356 10 485 3 129
8 345 10 480 3 135 7 349 10 475 3 127 8 320 10 430 24 1125 22 1070 45 1165
27 111 27 111 34 155 4 20 9 42 12 47 12 19 11 176 0 229 -10 43 -19 57 -44
72 -79 46 -216 76 -277 60z"/>
</g>
</svg>
